PathFileType	4	(X/Y/Z)	RBDS002static.trc
DataRate	CameraRate	NumFrames	NumMarkers	Units	OrigDataRate	OrigDataStartFrame	OrigNumFrames
150.000000	150.000000	4	48	mm	150.000000	56	150
Frame#	Time	L.Ankle			L.Ankle.Medial			L.ASIS			L.GTR			L.Heel.Bottom			L.Heel.Lateral			L.Heel.Top			L.HF			L.Iliac.Crest			L.Knee			L.Knee.Medial			L.MT1			L.MT2			L.MT5			L.PSIS			L.Shank.Bottom.Lateral			L.Shank.Bottom.Medial			L.Shank.Top.Lateral			L.Shank.Top.Medial			L.Thigh.Bottom.Lateral			L.Thigh.Bottom.Medial			L.Thigh.Top.Lateral			L.Thigh.Top.Medial			L.TT			R.Ankle			R.Ankle.Medial			R.ASIS			R.GTR			R.Heel.Bottom			R.Heel.Lateral			R.Heel.Top			R.HF			R.Iliac.Crest			R.Knee			R.Knee.Medial			R.MT1			R.MT2			R.MT5			R.PSIS			R.Shank.Bottom.Lateral			R.Shank.Bottom.Medial			R.Shank.Top.Lateral			R.Shank.Top.Medial			R.Thigh.Bottom.Lateral			R.Thigh.Bottom.Medial			R.Thigh.Top.Lateral			R.Thigh.Top.Medial			R.TT			
		X1	Y1	Z1	X2	Y2	Z2	X3	Y3	Z3	X4	Y4	Z4	X5	Y5	Z5	X6	Y6	Z6	X7	Y7	Z7	X8	Y8	Z8	X9	Y9	Z9	X10	Y10	Z10	X11	Y11	Z11	X12	Y12	Z12	X13	Y13	Z13	X14	Y14	Z14	X15	Y15	Z15	X16	Y16	Z16	X17	Y17	Z17	X18	Y18	Z18	X19	Y19	Z19	X20	Y20	Z20	X21	Y21	Z21	X22	Y22	Z22	X23	Y23	Z23	X24	Y24	Z24	X25	Y25	Z25	X26	Y26	Z26	X27	Y27	Z27	X28	Y28	Z28	X29	Y29	Z29	X30	Y30	Z30	X31	Y31	Z31	X32	Y32	Z32	X33	Y33	Z33	X34	Y34	Z34	X35	Y35	Z35	X36	Y36	Z36	X37	Y37	Z37	X38	Y38	Z38	X39	Y39	Z39	X40	Y40	Z40	X41	Y41	Z41	X42	Y42	Z42	X43	Y43	Z43	X44	Y44	Z44	X45	Y45	Z45	X46	Y46	Z46	X47	Y47	Z47	X48	Y48	Z48	

57	0.3733333333333334	713.162841796875	106.3280639648438	1030.554443359375	735.3806762695313	119.1282730102539	1112.087036132813	853.6513671875	1050.665771484375	1108.582763671875	775.4830322265625	953.8804321289063	1031.78466796875	637.3600463867188	44.15510177612305	1072.23828125	670.4605712890625	55.17861938476563	1027.259765625	648.8468627929688	94.16220092773438	1071.404907226563	723.2276611328125	484.0066833496094	1007.984497070313	767.3915405273438	1129.65283203125	1051.8046875	736.1116333007813	552.0316162109375	1011.799499511719	715.0381469726563	530.0469970703125	1140.550170898438	864.9783935546875	63.66801834106445	1121.737548828125	871.53466796875	71.26492309570313	1073.810791015625	838.730712890625	47.48868179321289	1005.164672851563	665.880126953125	1096.302490234375	1167.14111328125	701.7185668945313	176.4253234863281	1020.279235839844	663.0452270507813	175.57861328125	1054.296630859375	691.3817138671875	255.221923828125	1004.542175292969	652.9556884765625	259.2527465820313	1041.216918945313	725.8294677734375	649.0238647460938	1010.705322265625	673.4020385742188	641.8902587890625	1061.60205078125	714.830322265625	758.8380737304688	1019.757568359375	668.2714233398438	752.1658325195313	1070.042358398438	782.366943359375	462.8645629882813	1062.622802734375	709.9381713867188	104.9464721679688	1411.256958007813	732.9859008789063	121.2564544677734	1327.300537109375	849.5404052734375	1049.935546875	1326.804565429688	767.5706787109375	964.6494750976563	1398.881958007813	632.5482788085938	44.00820922851563	1374.590087890625	658.0396118164063	59.14419555664063	1412.349243164063	644.7208862304688	94.39691162109375	1373.234497070313	734.0701293945313	486.6047973632813	1422.778930664063	764.5211181640625	1132.765869140625	1374.342529296875	734.5650634765625	558.7933349609375	1415.604370117188	722.190185546875	535.8795166015625	1284.833251953125	862.4462280273438	66.27637481689453	1323.627319335938	865.8236083984375	74.7901611328125	1366.900390625	838.353759765625	57.00046157836914	1435.830444335938	664.530029296875	1097.985595703125	1256.232666015625	697.3519287109375	189.1489105224609	1423.547729492188	657.494384765625	191.2624359130859	1386.318359375	688.6272583007813	268.9447021484375	1435.5244140625	651.1192016601563	270.3904418945313	1396.175903320313	718.7135009765625	660.08935546875	1417.933227539063	665.78564453125	657.6525268554688	1365.8798828125	710.444580078125	770.6649169921875	1417.31787109375	661.2241821289063	767.8302001953125	1367.117797851563	789.2186889648438	475.6714477539063	1367.460815429688	
58	0.38	713.1695556640625	106.3231811523438	1030.556640625	735.3733520507813	119.1255722045898	1112.081176757813	853.633544921875	1050.663696289063	1108.597900390625	775.4645385742188	953.884521484375	1031.796264648438	637.3653564453125	44.15872573852539	1072.238159179688	670.46044921875	55.17246246337891	1027.260498046875	648.8471069335938	94.16537475585938	1071.413330078125	723.239501953125	484.00439453125	1007.991882324219	767.3794555664063	1129.652954101563	1051.803466796875	736.1160888671875	552.0236206054688	1011.803955078125	715.0304565429688	530.0556640625	1140.561279296875	864.994384765625	63.66798782348633	1121.739013671875	871.5368041992188	71.26374053955078	1073.810424804688	838.746826171875	47.49669647216797	1005.164306640625	665.8636474609375	1096.305541992188	1167.132690429688	701.7152099609375	176.4147491455078	1020.279602050781	663.0439453125	175.5814971923828	1054.291870117188	691.37841796875	255.2222747802734	1004.546691894531	652.9588623046875	259.2589111328125	1041.223876953125	725.8239135742188	649.0272827148438	1010.708984375	673.3964233398438	641.88818359375	1061.6083984375	714.817626953125	758.848876953125	1019.759704589844	668.2606201171875	752.163818359375	1070.053466796875	782.3673095703125	462.8680725097656	1062.62646484375	709.93701171875	104.9570388793945	1411.257446289063	732.9840698242188	121.2420196533203	1327.300659179688	849.5177001953125	1049.926879882813	1326.819580078125	767.5465087890625	964.6585083007813	1398.883666992188	632.555419921875	44.00786209106445	1374.597045898438	658.0325927734375	59.14497375488281	1412.339721679688	644.72314453125	94.3914794921875	1373.230102539063	734.0733032226563	486.59716796875	1422.789672851563	764.49951171875	1132.7763671875	1374.344970703125	734.5748291015625	558.8070678710938	1415.601928710938	722.2064819335938	535.88671875	1284.836791992188	862.4531860351563	66.28142547607422	1323.626220703125	865.8200073242188	74.787109375	1366.894653320313	838.3668212890625	57.00518798828125	1435.8212890625	664.5087890625	1097.987915039063	1256.23828125	697.35400390625	189.1468200683594	1423.5498046875	657.4962768554688	191.2641296386719	1386.31884765625	688.6326904296875	268.9581909179688	1435.52490234375	651.11962890625	270.392333984375	1396.174072265625	718.716064453125	660.0877075195313	1417.935913085938	665.7911987304688	657.6451416015625	1365.87646484375	710.4439697265625	770.666259765625	1417.31884765625	661.2200927734375	767.8229370117188	1367.119262695313	789.2293701171875	475.6686401367188	1367.448852539063	
59	0.3866666666666667	713.1679077148438	106.328727722168	1030.54638671875	735.3805541992188	119.1244506835938	1112.085693359375	853.6092529296875	1050.670654296875	1108.618774414063	775.4467163085938	953.8897094726563	1031.8017578125	637.3670043945313	44.15830230712891	1072.2412109375	670.4595947265625	55.17452621459961	1027.263916015625	648.8425903320313	94.16287231445313	1071.41064453125	723.22900390625	484.0052490234375	1007.985900878906	767.3463745117188	1129.666625976563	1051.808959960938	736.1102905273438	552.0362548828125	1011.809509277344	715.0308227539063	530.048583984375	1140.56787109375	864.9859008789063	63.67819595336914	1121.743286132813	871.5333862304688	71.26293182373047	1073.814697265625	838.7213134765625	47.49800491333008	1005.165405273438	665.84619140625	1096.2998046875	1167.153076171875	701.7134399414063	176.4266510009766	1020.279479980469	663.043212890625	175.5797882080078	1054.295654296875	691.3822021484375	255.2305908203125	1004.553405761719	652.9583740234375	259.2621459960938	1041.21923828125	725.8116455078125	649.0247192382813	1010.715454101563	673.3897094726563	641.8857421875	1061.63720703125	714.7975463867188	758.8390502929688	1019.774047851563	668.249755859375	752.1613159179688	1070.07080078125	782.3439331054688	462.8573303222656	1062.620483398438	709.9407348632813	104.9522399902344	1411.256958007813	732.970947265625	121.2510452270508	1327.30322265625	849.4970092773438	1049.936767578125	1326.818481445313	767.5371704101563	964.6571044921875	1398.884399414063	632.5482177734375	44.0082893371582	1374.588623046875	658.0278930664063	59.1476936340332	1412.340454101563	644.7255859375	94.39568328857422	1373.226928710938	734.0811157226563	486.6019592285156	1422.792114257813	764.4759521484375	1132.774536132813	1374.34619140625	734.5796508789063	558.796142578125	1415.603759765625	722.209228515625	535.8853149414063	1284.831787109375	862.4557495117188	66.27461242675781	1323.619262695313	865.8316040039063	74.78986358642578	1366.887329101563	838.3599243164063	57.00772094726563	1435.826782226563	664.48486328125	1097.983032226563	1256.2421875	697.3582153320313	189.1498260498047	1423.541748046875	657.4891967773438	191.2615814208984	1386.306518554688	688.631591796875	268.9477233886719	1435.516723632813	651.12060546875	270.3890380859375	1396.177734375	718.7168579101563	660.0888061523438	1417.937377929688	665.7930297851563	657.63671875	1365.881713867188	710.4375610351563	770.6636352539063	1417.324462890625	661.221923828125	767.8108520507813	1367.117431640625	789.2376098632813	475.6676330566406	1367.447387695313	
60	0.3933333333333334	713.1549682617188	106.3229064941406	1030.549194335938	735.3751220703125	119.116096496582	1112.079223632813	853.5940551757813	1050.6787109375	1108.63134765625	775.4224853515625	953.8934326171875	1031.793090820313	637.3673706054688	44.15923309326172	1072.238403320313	670.45947265625	55.17741012573242	1027.2568359375	648.842041015625	94.16756439208984	1071.413208007813	723.21630859375	483.9986877441406	1007.986511230469	767.331787109375	1129.670776367188	1051.8232421875	736.0968627929688	552.0323486328125	1011.808837890625	715.0333251953125	530.04296875	1140.569946289063	864.9761962890625	63.66576766967773	1121.740112304688	871.5220336914063	71.266845703125	1073.8115234375	838.7304077148438	47.49530029296875	1005.172180175781	665.826904296875	1096.300659179688	1167.163940429688	701.712646484375	176.4263458251953	1020.288879394531	663.0381469726563	175.5743103027344	1054.298583984375	691.3785400390625	255.2176666259766	1004.547912597656	652.9520874023438	259.2550354003906	1041.232421875	725.7972412109375	649.0293579101563	1010.723327636719	673.3757934570313	641.8878784179688	1061.63427734375	714.788330078125	758.8358154296875	1019.788940429688	668.2449951171875	752.1588134765625	1070.070434570313	782.33984375	462.8656005859375	1062.633422851563	709.9445190429688	104.9573516845703	1411.252075195313	732.9666137695313	121.254020690918	1327.312622070313	849.4789428710938	1049.936401367188	1326.828979492188	767.5184936523438	964.6561889648438	1398.885986328125	632.5482177734375	44.00696563720703	1374.589233398438	658.0267944335938	59.15468597412109	1412.334106445313	644.7216796875	94.38811492919922	1373.22119140625	734.0799560546875	486.6016845703125	1422.784790039063	764.4589233398438	1132.786865234375	1374.35546875	734.584716796875	558.799072265625	1415.594970703125	722.2205810546875	535.8778686523438	1284.830078125	862.4501953125	66.28227996826172	1323.619995117188	865.8228759765625	74.80142211914063	1366.894653320313	838.3563232421875	56.99723434448242	1435.816528320313	664.4669189453125	1097.988891601563	1256.257202148438	697.3602905273438	189.1481170654297	1423.54150390625	657.4955444335938	191.2672882080078	1386.3134765625	688.6373901367188	268.9511108398438	1435.5146484375	651.1236572265625	270.3923950195313	1396.175415039063	718.7146606445313	660.0870971679688	1417.948364257813	665.7989501953125	657.631591796875	1365.880859375	710.4437255859375	770.6535034179688	1417.324462890625	661.2197875976563	767.8126831054688	1367.117553710938	789.233642578125	475.6618957519531	1367.445068359375	
